<mxfile host="app.diagrams.net" modified="2020-12-07T15:15:13.297Z" agent="5.0 (Windows)" etag="4fSYAzoKtywWbtDt-rKN" version="13.11.0" type="github">
  <diagram id="C5RBs43oDa-KdzZeNtuy" name="Page-1">
    <mxGraphModel dx="981" dy="526" grid="1" gridSize="10" guides="1" tooltips="1" connect="1" arrows="1" fold="1" page="1" pageScale="1" pageWidth="827" pageHeight="1169" math="0" shadow="0">
      <root>
        <mxCell id="WIyWlLk6GJQsqaUBKTNV-0" />
        <mxCell id="WIyWlLk6GJQsqaUBKTNV-1" parent="WIyWlLk6GJQsqaUBKTNV-0" />
        <mxCell id="zkfFHV4jXpPFQw0GAbJ--0" value="event" style="swimlane;fontStyle=2;align=center;verticalAlign=top;childLayout=stackLayout;horizontal=1;startSize=26;horizontalStack=0;resizeParent=1;resizeLast=0;collapsible=1;marginBottom=0;rounded=0;shadow=0;strokeWidth=1;fillColor=none;" parent="WIyWlLk6GJQsqaUBKTNV-1" vertex="1">
          <mxGeometry x="150" y="215" width="160" height="138" as="geometry">
            <mxRectangle x="200" y="80" width="160" height="26" as="alternateBounds" />
          </mxGeometry>
        </mxCell>
        <mxCell id="zkfFHV4jXpPFQw0GAbJ--1" value="-  title: String" style="text;align=left;verticalAlign=top;spacingLeft=4;spacingRight=4;overflow=hidden;rotatable=0;points=[[0,0.5],[1,0.5]];portConstraint=eastwest;" parent="zkfFHV4jXpPFQw0GAbJ--0" vertex="1">
          <mxGeometry y="26" width="160" height="26" as="geometry" />
        </mxCell>
        <mxCell id="zkfFHV4jXpPFQw0GAbJ--2" value="- sector: String" style="text;align=left;verticalAlign=top;spacingLeft=4;spacingRight=4;overflow=hidden;rotatable=0;points=[[0,0.5],[1,0.5]];portConstraint=eastwest;rounded=0;shadow=0;html=0;" parent="zkfFHV4jXpPFQw0GAbJ--0" vertex="1">
          <mxGeometry y="52" width="160" height="26" as="geometry" />
        </mxCell>
        <mxCell id="zkfFHV4jXpPFQw0GAbJ--3" value="- date: Date" style="text;align=left;verticalAlign=top;spacingLeft=4;spacingRight=4;overflow=hidden;rotatable=0;points=[[0,0.5],[1,0.5]];portConstraint=eastwest;rounded=0;shadow=0;html=0;" parent="zkfFHV4jXpPFQw0GAbJ--0" vertex="1">
          <mxGeometry y="78" width="160" height="26" as="geometry" />
        </mxCell>
        <mxCell id="GKu7pvznXo3YkOagFsmP-5" value="- place: String" style="text;align=left;verticalAlign=top;spacingLeft=4;spacingRight=4;overflow=hidden;rotatable=0;points=[[0,0.5],[1,0.5]];portConstraint=eastwest;rounded=0;shadow=0;html=0;" vertex="1" parent="zkfFHV4jXpPFQw0GAbJ--0">
          <mxGeometry y="104" width="160" height="26" as="geometry" />
        </mxCell>
        <mxCell id="zkfFHV4jXpPFQw0GAbJ--17" value="details" style="swimlane;fontStyle=0;align=center;verticalAlign=top;childLayout=stackLayout;horizontal=1;startSize=26;horizontalStack=0;resizeParent=1;resizeLast=0;collapsible=1;marginBottom=0;rounded=0;shadow=0;strokeWidth=1;" parent="WIyWlLk6GJQsqaUBKTNV-1" vertex="1">
          <mxGeometry x="320" y="50" width="160" height="52" as="geometry">
            <mxRectangle x="550" y="140" width="160" height="26" as="alternateBounds" />
          </mxGeometry>
        </mxCell>
        <mxCell id="zkfFHV4jXpPFQw0GAbJ--18" value="- description: String" style="text;align=left;verticalAlign=top;spacingLeft=4;spacingRight=4;overflow=hidden;rotatable=0;points=[[0,0.5],[1,0.5]];portConstraint=eastwest;" parent="zkfFHV4jXpPFQw0GAbJ--17" vertex="1">
          <mxGeometry y="26" width="160" height="26" as="geometry" />
        </mxCell>
        <mxCell id="zkfFHV4jXpPFQw0GAbJ--26" value="" style="endArrow=open;shadow=0;strokeWidth=1;rounded=0;endFill=1;edgeStyle=elbowEdgeStyle;elbow=vertical;exitX=0.5;exitY=0;exitDx=0;exitDy=0;entryX=0.313;entryY=1;entryDx=0;entryDy=0;entryPerimeter=0;" parent="WIyWlLk6GJQsqaUBKTNV-1" source="zkfFHV4jXpPFQw0GAbJ--0" target="zkfFHV4jXpPFQw0GAbJ--18" edge="1">
          <mxGeometry x="0.5" y="41" relative="1" as="geometry">
            <mxPoint x="250" y="250" as="sourcePoint" />
            <mxPoint x="402" y="114" as="targetPoint" />
            <mxPoint x="-40" y="32" as="offset" />
            <Array as="points">
              <mxPoint x="350" y="140" />
              <mxPoint x="390" y="270" />
              <mxPoint x="390" y="290" />
            </Array>
          </mxGeometry>
        </mxCell>
        <mxCell id="zkfFHV4jXpPFQw0GAbJ--27" value="1" style="resizable=0;align=left;verticalAlign=bottom;labelBackgroundColor=none;fontSize=12;" parent="zkfFHV4jXpPFQw0GAbJ--26" connectable="0" vertex="1">
          <mxGeometry x="-1" relative="1" as="geometry">
            <mxPoint y="1" as="offset" />
          </mxGeometry>
        </mxCell>
        <mxCell id="zkfFHV4jXpPFQw0GAbJ--28" value="1" style="resizable=0;align=right;verticalAlign=bottom;labelBackgroundColor=none;fontSize=12;" parent="zkfFHV4jXpPFQw0GAbJ--26" connectable="0" vertex="1">
          <mxGeometry x="1" relative="1" as="geometry">
            <mxPoint x="-7" y="17.91" as="offset" />
          </mxGeometry>
        </mxCell>
        <mxCell id="GKu7pvznXo3YkOagFsmP-13" value="work" style="swimlane;fontStyle=2;align=center;verticalAlign=top;childLayout=stackLayout;horizontal=1;startSize=26;horizontalStack=0;resizeParent=1;resizeLast=0;collapsible=1;marginBottom=0;rounded=0;shadow=0;strokeWidth=1;fillColor=none;" vertex="1" parent="WIyWlLk6GJQsqaUBKTNV-1">
          <mxGeometry x="490" y="249" width="160" height="104" as="geometry">
            <mxRectangle x="200" y="80" width="160" height="26" as="alternateBounds" />
          </mxGeometry>
        </mxCell>
        <mxCell id="GKu7pvznXo3YkOagFsmP-14" value="-  title: String" style="text;align=left;verticalAlign=top;spacingLeft=4;spacingRight=4;overflow=hidden;rotatable=0;points=[[0,0.5],[1,0.5]];portConstraint=eastwest;" vertex="1" parent="GKu7pvznXo3YkOagFsmP-13">
          <mxGeometry y="26" width="160" height="26" as="geometry" />
        </mxCell>
        <mxCell id="GKu7pvznXo3YkOagFsmP-15" value="- sector: String" style="text;align=left;verticalAlign=top;spacingLeft=4;spacingRight=4;overflow=hidden;rotatable=0;points=[[0,0.5],[1,0.5]];portConstraint=eastwest;rounded=0;shadow=0;html=0;" vertex="1" parent="GKu7pvznXo3YkOagFsmP-13">
          <mxGeometry y="52" width="160" height="26" as="geometry" />
        </mxCell>
        <mxCell id="GKu7pvznXo3YkOagFsmP-16" value="- validated: boolean" style="text;align=left;verticalAlign=top;spacingLeft=4;spacingRight=4;overflow=hidden;rotatable=0;points=[[0,0.5],[1,0.5]];portConstraint=eastwest;rounded=0;shadow=0;html=0;" vertex="1" parent="GKu7pvznXo3YkOagFsmP-13">
          <mxGeometry y="78" width="160" height="26" as="geometry" />
        </mxCell>
        <mxCell id="GKu7pvznXo3YkOagFsmP-6" value="stage" style="swimlane;fontStyle=2;align=center;verticalAlign=top;childLayout=stackLayout;horizontal=1;startSize=26;horizontalStack=0;resizeParent=1;resizeLast=0;collapsible=1;marginBottom=0;rounded=0;shadow=0;strokeWidth=1;fillColor=none;" vertex="1" parent="WIyWlLk6GJQsqaUBKTNV-1">
          <mxGeometry x="320" y="171" width="160" height="182" as="geometry">
            <mxRectangle x="200" y="80" width="160" height="26" as="alternateBounds" />
          </mxGeometry>
        </mxCell>
        <mxCell id="GKu7pvznXo3YkOagFsmP-7" value="-  title: String" style="text;align=left;verticalAlign=top;spacingLeft=4;spacingRight=4;overflow=hidden;rotatable=0;points=[[0,0.5],[1,0.5]];portConstraint=eastwest;" vertex="1" parent="GKu7pvznXo3YkOagFsmP-6">
          <mxGeometry y="26" width="160" height="26" as="geometry" />
        </mxCell>
        <mxCell id="GKu7pvznXo3YkOagFsmP-8" value="- sector: String" style="text;align=left;verticalAlign=top;spacingLeft=4;spacingRight=4;overflow=hidden;rotatable=0;points=[[0,0.5],[1,0.5]];portConstraint=eastwest;rounded=0;shadow=0;html=0;" vertex="1" parent="GKu7pvznXo3YkOagFsmP-6">
          <mxGeometry y="52" width="160" height="26" as="geometry" />
        </mxCell>
        <mxCell id="GKu7pvznXo3YkOagFsmP-9" value="-  startingDate: Date" style="text;align=left;verticalAlign=top;spacingLeft=4;spacingRight=4;overflow=hidden;rotatable=0;points=[[0,0.5],[1,0.5]];portConstraint=eastwest;rounded=0;shadow=0;html=0;" vertex="1" parent="GKu7pvznXo3YkOagFsmP-6">
          <mxGeometry y="78" width="160" height="26" as="geometry" />
        </mxCell>
        <mxCell id="GKu7pvznXo3YkOagFsmP-10" value="- endingDate: Date" style="text;align=left;verticalAlign=top;spacingLeft=4;spacingRight=4;overflow=hidden;rotatable=0;points=[[0,0.5],[1,0.5]];portConstraint=eastwest;rounded=0;shadow=0;html=0;" vertex="1" parent="GKu7pvznXo3YkOagFsmP-6">
          <mxGeometry y="104" width="160" height="26" as="geometry" />
        </mxCell>
        <mxCell id="GKu7pvznXo3YkOagFsmP-11" value="- tipo: boolean" style="text;align=left;verticalAlign=top;spacingLeft=4;spacingRight=4;overflow=hidden;rotatable=0;points=[[0,0.5],[1,0.5]];portConstraint=eastwest;rounded=0;shadow=0;html=0;" vertex="1" parent="GKu7pvznXo3YkOagFsmP-6">
          <mxGeometry y="130" width="160" height="26" as="geometry" />
        </mxCell>
        <mxCell id="GKu7pvznXo3YkOagFsmP-12" value="- tipo: validated" style="text;align=left;verticalAlign=top;spacingLeft=4;spacingRight=4;overflow=hidden;rotatable=0;points=[[0,0.5],[1,0.5]];portConstraint=eastwest;rounded=0;shadow=0;html=0;" vertex="1" parent="GKu7pvznXo3YkOagFsmP-6">
          <mxGeometry y="156" width="160" height="26" as="geometry" />
        </mxCell>
        <mxCell id="GKu7pvznXo3YkOagFsmP-22" value="" style="endArrow=open;shadow=0;strokeWidth=1;rounded=0;endFill=1;edgeStyle=elbowEdgeStyle;elbow=vertical;exitX=0.5;exitY=0;exitDx=0;exitDy=0;entryX=0.5;entryY=1.078;entryDx=0;entryDy=0;entryPerimeter=0;" edge="1" parent="WIyWlLk6GJQsqaUBKTNV-1" source="GKu7pvznXo3YkOagFsmP-6" target="zkfFHV4jXpPFQw0GAbJ--18">
          <mxGeometry x="0.5" y="41" relative="1" as="geometry">
            <mxPoint x="180" y="319" as="sourcePoint" />
            <mxPoint x="420" y="130" as="targetPoint" />
            <mxPoint x="-40" y="32" as="offset" />
            <Array as="points">
              <mxPoint x="410" y="150" />
              <mxPoint x="430" y="270" />
              <mxPoint x="480" y="250" />
              <mxPoint x="400" y="280" />
              <mxPoint x="400" y="300" />
            </Array>
          </mxGeometry>
        </mxCell>
        <mxCell id="GKu7pvznXo3YkOagFsmP-23" value="1" style="resizable=0;align=left;verticalAlign=bottom;labelBackgroundColor=none;fontSize=12;" connectable="0" vertex="1" parent="GKu7pvznXo3YkOagFsmP-22">
          <mxGeometry x="-1" relative="1" as="geometry">
            <mxPoint as="offset" />
          </mxGeometry>
        </mxCell>
        <mxCell id="GKu7pvznXo3YkOagFsmP-24" value="1" style="resizable=0;align=right;verticalAlign=bottom;labelBackgroundColor=none;fontSize=12;" connectable="0" vertex="1" parent="GKu7pvznXo3YkOagFsmP-22">
          <mxGeometry x="1" relative="1" as="geometry">
            <mxPoint x="-7" y="16" as="offset" />
          </mxGeometry>
        </mxCell>
        <mxCell id="GKu7pvznXo3YkOagFsmP-26" value="" style="endArrow=open;shadow=0;strokeWidth=1;rounded=0;endFill=1;edgeStyle=elbowEdgeStyle;elbow=vertical;exitX=0.5;exitY=0;exitDx=0;exitDy=0;entryX=0.684;entryY=1.054;entryDx=0;entryDy=0;entryPerimeter=0;" edge="1" parent="WIyWlLk6GJQsqaUBKTNV-1" source="GKu7pvznXo3YkOagFsmP-13" target="zkfFHV4jXpPFQw0GAbJ--18">
          <mxGeometry x="0.5" y="41" relative="1" as="geometry">
            <mxPoint x="620" y="329" as="sourcePoint" />
            <mxPoint x="430" y="120" as="targetPoint" />
            <mxPoint x="-40" y="32" as="offset" />
            <Array as="points">
              <mxPoint x="580" y="160" />
              <mxPoint x="490" y="280" />
              <mxPoint x="410" y="310" />
              <mxPoint x="410" y="330" />
            </Array>
          </mxGeometry>
        </mxCell>
        <mxCell id="GKu7pvznXo3YkOagFsmP-27" value="1" style="resizable=0;align=left;verticalAlign=bottom;labelBackgroundColor=none;fontSize=12;" connectable="0" vertex="1" parent="GKu7pvznXo3YkOagFsmP-26">
          <mxGeometry x="-1" relative="1" as="geometry">
            <mxPoint y="-19" as="offset" />
          </mxGeometry>
        </mxCell>
        <mxCell id="GKu7pvznXo3YkOagFsmP-28" value="1" style="resizable=0;align=right;verticalAlign=bottom;labelBackgroundColor=none;fontSize=12;" connectable="0" vertex="1" parent="GKu7pvznXo3YkOagFsmP-26">
          <mxGeometry x="1" relative="1" as="geometry">
            <mxPoint x="-7" y="16.44" as="offset" />
          </mxGeometry>
        </mxCell>
        <mxCell id="GKu7pvznXo3YkOagFsmP-88" style="edgeStyle=orthogonalEdgeStyle;rounded=0;orthogonalLoop=1;jettySize=auto;html=1;entryX=0.5;entryY=0;entryDx=0;entryDy=0;endArrow=open;endFill=0;" edge="1" parent="WIyWlLk6GJQsqaUBKTNV-1" source="GKu7pvznXo3YkOagFsmP-32" target="GKu7pvznXo3YkOagFsmP-48">
          <mxGeometry relative="1" as="geometry" />
        </mxCell>
        <mxCell id="GKu7pvznXo3YkOagFsmP-92" value="1" style="edgeLabel;html=1;align=center;verticalAlign=middle;resizable=0;points=[];" vertex="1" connectable="0" parent="GKu7pvznXo3YkOagFsmP-88">
          <mxGeometry x="-0.7643" y="-1" relative="1" as="geometry">
            <mxPoint x="11" as="offset" />
          </mxGeometry>
        </mxCell>
        <mxCell id="GKu7pvznXo3YkOagFsmP-97" value="&lt;div&gt;1&lt;/div&gt;" style="edgeLabel;html=1;align=center;verticalAlign=middle;resizable=0;points=[];" vertex="1" connectable="0" parent="GKu7pvznXo3YkOagFsmP-88">
          <mxGeometry x="0.6675" y="-1" relative="1" as="geometry">
            <mxPoint x="11" y="8.57" as="offset" />
          </mxGeometry>
        </mxCell>
        <mxCell id="GKu7pvznXo3YkOagFsmP-134" style="edgeStyle=orthogonalEdgeStyle;rounded=0;orthogonalLoop=1;jettySize=auto;html=1;entryX=0.453;entryY=1.017;entryDx=0;entryDy=0;entryPerimeter=0;endArrow=blockThin;endFill=0;" edge="1" parent="WIyWlLk6GJQsqaUBKTNV-1" source="GKu7pvznXo3YkOagFsmP-32" target="GKu7pvznXo3YkOagFsmP-108">
          <mxGeometry relative="1" as="geometry" />
        </mxCell>
        <mxCell id="GKu7pvznXo3YkOagFsmP-32" value="student" style="swimlane;fontStyle=2;align=center;verticalAlign=top;childLayout=stackLayout;horizontal=1;startSize=26;horizontalStack=0;resizeParent=1;resizeLast=0;collapsible=1;marginBottom=0;rounded=0;shadow=0;strokeWidth=1;fillColor=none;" vertex="1" parent="WIyWlLk6GJQsqaUBKTNV-1">
          <mxGeometry x="370" y="530" width="160" height="110" as="geometry">
            <mxRectangle x="200" y="80" width="160" height="26" as="alternateBounds" />
          </mxGeometry>
        </mxCell>
        <mxCell id="GKu7pvznXo3YkOagFsmP-33" value="-  firstName: string" style="text;align=left;verticalAlign=top;spacingLeft=4;spacingRight=4;overflow=hidden;rotatable=0;points=[[0,0.5],[1,0.5]];portConstraint=eastwest;" vertex="1" parent="GKu7pvznXo3YkOagFsmP-32">
          <mxGeometry y="26" width="160" height="26" as="geometry" />
        </mxCell>
        <mxCell id="GKu7pvznXo3YkOagFsmP-34" value="- lastName: string" style="text;align=left;verticalAlign=top;spacingLeft=4;spacingRight=4;overflow=hidden;rotatable=0;points=[[0,0.5],[1,0.5]];portConstraint=eastwest;rounded=0;shadow=0;html=0;" vertex="1" parent="GKu7pvznXo3YkOagFsmP-32">
          <mxGeometry y="52" width="160" height="26" as="geometry" />
        </mxCell>
        <mxCell id="GKu7pvznXo3YkOagFsmP-35" value="- department: string" style="text;align=left;verticalAlign=top;spacingLeft=4;spacingRight=4;overflow=hidden;rotatable=0;points=[[0,0.5],[1,0.5]];portConstraint=eastwest;rounded=0;shadow=0;html=0;" vertex="1" parent="GKu7pvznXo3YkOagFsmP-32">
          <mxGeometry y="78" width="160" height="26" as="geometry" />
        </mxCell>
        <mxCell id="GKu7pvznXo3YkOagFsmP-90" style="edgeStyle=orthogonalEdgeStyle;rounded=0;orthogonalLoop=1;jettySize=auto;html=1;entryX=0.5;entryY=0;entryDx=0;entryDy=0;endArrow=open;endFill=0;" edge="1" parent="WIyWlLk6GJQsqaUBKTNV-1" source="GKu7pvznXo3YkOagFsmP-37" target="GKu7pvznXo3YkOagFsmP-48">
          <mxGeometry relative="1" as="geometry">
            <mxPoint x="390" y="690" as="targetPoint" />
            <Array as="points">
              <mxPoint x="200" y="650" />
              <mxPoint x="450" y="650" />
            </Array>
          </mxGeometry>
        </mxCell>
        <mxCell id="GKu7pvznXo3YkOagFsmP-93" value="&lt;div&gt;1&lt;/div&gt;" style="edgeLabel;html=1;align=center;verticalAlign=middle;resizable=0;points=[];" vertex="1" connectable="0" parent="GKu7pvznXo3YkOagFsmP-90">
          <mxGeometry x="-0.9379" y="1" relative="1" as="geometry">
            <mxPoint x="8.97" y="1.57" as="offset" />
          </mxGeometry>
        </mxCell>
        <mxCell id="GKu7pvznXo3YkOagFsmP-37" value="university" style="swimlane;fontStyle=2;align=center;verticalAlign=top;childLayout=stackLayout;horizontal=1;startSize=26;horizontalStack=0;resizeParent=1;resizeLast=0;collapsible=1;marginBottom=0;rounded=0;shadow=0;strokeWidth=1;fillColor=none;" vertex="1" parent="WIyWlLk6GJQsqaUBKTNV-1">
          <mxGeometry x="120" y="520" width="160" height="52" as="geometry">
            <mxRectangle x="200" y="80" width="160" height="26" as="alternateBounds" />
          </mxGeometry>
        </mxCell>
        <mxCell id="GKu7pvznXo3YkOagFsmP-38" value="-  name: String" style="text;align=left;verticalAlign=top;spacingLeft=4;spacingRight=4;overflow=hidden;rotatable=0;points=[[0,0.5],[1,0.5]];portConstraint=eastwest;" vertex="1" parent="GKu7pvznXo3YkOagFsmP-37">
          <mxGeometry y="26" width="160" height="26" as="geometry" />
        </mxCell>
        <mxCell id="GKu7pvznXo3YkOagFsmP-89" style="edgeStyle=orthogonalEdgeStyle;rounded=0;orthogonalLoop=1;jettySize=auto;html=1;endArrow=open;endFill=0;entryX=0.5;entryY=0;entryDx=0;entryDy=0;" edge="1" parent="WIyWlLk6GJQsqaUBKTNV-1" source="GKu7pvznXo3YkOagFsmP-42" target="GKu7pvznXo3YkOagFsmP-48">
          <mxGeometry relative="1" as="geometry">
            <mxPoint x="480" y="690" as="targetPoint" />
            <Array as="points">
              <mxPoint x="670" y="650" />
              <mxPoint x="450" y="650" />
            </Array>
          </mxGeometry>
        </mxCell>
        <mxCell id="GKu7pvznXo3YkOagFsmP-91" value="1" style="edgeLabel;html=1;align=center;verticalAlign=middle;resizable=0;points=[];" vertex="1" connectable="0" parent="GKu7pvznXo3YkOagFsmP-89">
          <mxGeometry x="-0.9647" y="-2" relative="1" as="geometry">
            <mxPoint x="-8.03" y="1.71" as="offset" />
          </mxGeometry>
        </mxCell>
        <mxCell id="GKu7pvznXo3YkOagFsmP-135" style="edgeStyle=orthogonalEdgeStyle;rounded=0;orthogonalLoop=1;jettySize=auto;html=1;entryX=1;entryY=0.5;entryDx=0;entryDy=0;endArrow=blockThin;endFill=0;" edge="1" parent="WIyWlLk6GJQsqaUBKTNV-1" source="GKu7pvznXo3YkOagFsmP-42" target="GKu7pvznXo3YkOagFsmP-108">
          <mxGeometry relative="1" as="geometry" />
        </mxCell>
        <mxCell id="GKu7pvznXo3YkOagFsmP-42" value="company" style="swimlane;fontStyle=2;align=center;verticalAlign=top;childLayout=stackLayout;horizontal=1;startSize=26;horizontalStack=0;resizeParent=1;resizeLast=0;collapsible=1;marginBottom=0;rounded=0;shadow=0;strokeWidth=1;fillColor=none;" vertex="1" parent="WIyWlLk6GJQsqaUBKTNV-1">
          <mxGeometry x="590" y="530" width="160" height="80" as="geometry">
            <mxRectangle x="200" y="80" width="160" height="26" as="alternateBounds" />
          </mxGeometry>
        </mxCell>
        <mxCell id="GKu7pvznXo3YkOagFsmP-43" value="-  partitaIva: String" style="text;align=left;verticalAlign=top;spacingLeft=4;spacingRight=4;overflow=hidden;rotatable=0;points=[[0,0.5],[1,0.5]];portConstraint=eastwest;" vertex="1" parent="GKu7pvznXo3YkOagFsmP-42">
          <mxGeometry y="26" width="160" height="26" as="geometry" />
        </mxCell>
        <mxCell id="GKu7pvznXo3YkOagFsmP-44" value="- name: String" style="text;align=left;verticalAlign=top;spacingLeft=4;spacingRight=4;overflow=hidden;rotatable=0;points=[[0,0.5],[1,0.5]];portConstraint=eastwest;rounded=0;shadow=0;html=0;" vertex="1" parent="GKu7pvznXo3YkOagFsmP-42">
          <mxGeometry y="52" width="160" height="26" as="geometry" />
        </mxCell>
        <mxCell id="GKu7pvznXo3YkOagFsmP-48" value="users" style="swimlane;fontStyle=2;align=center;verticalAlign=top;childLayout=stackLayout;horizontal=1;startSize=26;horizontalStack=0;resizeParent=1;resizeLast=0;collapsible=1;marginBottom=0;rounded=0;shadow=0;strokeWidth=1;fillColor=none;" vertex="1" parent="WIyWlLk6GJQsqaUBKTNV-1">
          <mxGeometry x="370" y="720" width="160" height="110" as="geometry">
            <mxRectangle x="200" y="80" width="160" height="26" as="alternateBounds" />
          </mxGeometry>
        </mxCell>
        <mxCell id="GKu7pvznXo3YkOagFsmP-49" value="-  username: string" style="text;align=left;verticalAlign=top;spacingLeft=4;spacingRight=4;overflow=hidden;rotatable=0;points=[[0,0.5],[1,0.5]];portConstraint=eastwest;" vertex="1" parent="GKu7pvznXo3YkOagFsmP-48">
          <mxGeometry y="26" width="160" height="26" as="geometry" />
        </mxCell>
        <mxCell id="GKu7pvznXo3YkOagFsmP-50" value="- password: string" style="text;align=left;verticalAlign=top;spacingLeft=4;spacingRight=4;overflow=hidden;rotatable=0;points=[[0,0.5],[1,0.5]];portConstraint=eastwest;rounded=0;shadow=0;html=0;" vertex="1" parent="GKu7pvznXo3YkOagFsmP-48">
          <mxGeometry y="52" width="160" height="26" as="geometry" />
        </mxCell>
        <mxCell id="GKu7pvznXo3YkOagFsmP-51" value="- enabled: boolean" style="text;align=left;verticalAlign=top;spacingLeft=4;spacingRight=4;overflow=hidden;rotatable=0;points=[[0,0.5],[1,0.5]];portConstraint=eastwest;rounded=0;shadow=0;html=0;" vertex="1" parent="GKu7pvznXo3YkOagFsmP-48">
          <mxGeometry y="78" width="160" height="26" as="geometry" />
        </mxCell>
        <mxCell id="GKu7pvznXo3YkOagFsmP-53" value="" style="endArrow=none;html=1;exitX=0.001;exitY=0.374;exitDx=0;exitDy=0;exitPerimeter=0;entryX=1;entryY=0.5;entryDx=0;entryDy=0;edgeStyle=orthogonalEdgeStyle;rounded=0;" edge="1" parent="WIyWlLk6GJQsqaUBKTNV-1" source="GKu7pvznXo3YkOagFsmP-34" target="GKu7pvznXo3YkOagFsmP-38">
          <mxGeometry width="50" height="50" relative="1" as="geometry">
            <mxPoint x="340" y="510" as="sourcePoint" />
            <mxPoint x="190" y="542" as="targetPoint" />
          </mxGeometry>
        </mxCell>
        <mxCell id="GKu7pvznXo3YkOagFsmP-62" value="1" style="edgeLabel;html=1;align=center;verticalAlign=middle;resizable=0;points=[];" vertex="1" connectable="0" parent="GKu7pvznXo3YkOagFsmP-53">
          <mxGeometry x="-0.7617" y="-1" relative="1" as="geometry">
            <mxPoint y="-10.4" as="offset" />
          </mxGeometry>
        </mxCell>
        <mxCell id="GKu7pvznXo3YkOagFsmP-63" value="&lt;div&gt;0..*&lt;/div&gt;" style="edgeLabel;html=1;align=center;verticalAlign=middle;resizable=0;points=[];" vertex="1" connectable="0" parent="GKu7pvznXo3YkOagFsmP-53">
          <mxGeometry x="0.8641" y="1" relative="1" as="geometry">
            <mxPoint x="1.83" y="-10.19" as="offset" />
          </mxGeometry>
        </mxCell>
        <mxCell id="GKu7pvznXo3YkOagFsmP-68" value="" style="endArrow=none;html=1;exitX=0.867;exitY=0.013;exitDx=0;exitDy=0;entryX=0.322;entryY=0.982;entryDx=0;entryDy=0;entryPerimeter=0;edgeStyle=orthogonalEdgeStyle;exitPerimeter=0;rounded=0;" edge="1" parent="WIyWlLk6GJQsqaUBKTNV-1" source="GKu7pvznXo3YkOagFsmP-32" target="GKu7pvznXo3YkOagFsmP-16">
          <mxGeometry width="50" height="50" relative="1" as="geometry">
            <mxPoint x="390" y="460" as="sourcePoint" />
            <mxPoint x="520" y="340" as="targetPoint" />
            <Array as="points">
              <mxPoint x="509" y="510" />
              <mxPoint x="542" y="510" />
            </Array>
          </mxGeometry>
        </mxCell>
        <mxCell id="GKu7pvznXo3YkOagFsmP-76" value="&lt;div&gt;0..*&lt;/div&gt;" style="edgeLabel;html=1;align=center;verticalAlign=middle;resizable=0;points=[];" vertex="1" connectable="0" parent="GKu7pvznXo3YkOagFsmP-68">
          <mxGeometry x="-0.8745" y="-1" relative="1" as="geometry">
            <mxPoint x="13.38" y="-1.34" as="offset" />
          </mxGeometry>
        </mxCell>
        <mxCell id="GKu7pvznXo3YkOagFsmP-77" value="&lt;div&gt;0..*&lt;/div&gt;" style="edgeLabel;html=1;align=center;verticalAlign=middle;resizable=0;points=[];" vertex="1" connectable="0" parent="GKu7pvznXo3YkOagFsmP-68">
          <mxGeometry x="-0.8745" y="-1" relative="1" as="geometry">
            <mxPoint x="-149.72" y="-1.3399999999999999" as="offset" />
          </mxGeometry>
        </mxCell>
        <mxCell id="GKu7pvznXo3YkOagFsmP-69" value="" style="endArrow=none;html=1;rounded=1;edgeStyle=orthogonalEdgeStyle;" edge="1" parent="WIyWlLk6GJQsqaUBKTNV-1">
          <mxGeometry width="50" height="50" relative="1" as="geometry">
            <mxPoint x="373" y="530" as="sourcePoint" />
            <mxPoint x="373" y="353" as="targetPoint" />
            <Array as="points">
              <mxPoint x="373" y="530" />
            </Array>
          </mxGeometry>
        </mxCell>
        <mxCell id="GKu7pvznXo3YkOagFsmP-72" value="&lt;div&gt;0..*&lt;/div&gt;" style="edgeLabel;html=1;align=center;verticalAlign=middle;resizable=0;points=[];" vertex="1" connectable="0" parent="GKu7pvznXo3YkOagFsmP-69">
          <mxGeometry x="0.921" relative="1" as="geometry">
            <mxPoint x="-13.799999999999999" y="11.55" as="offset" />
          </mxGeometry>
        </mxCell>
        <mxCell id="GKu7pvznXo3YkOagFsmP-71" value="" style="endArrow=none;html=1;exitX=0.5;exitY=0;exitDx=0;exitDy=0;entryX=0.154;entryY=1.005;entryDx=0;entryDy=0;entryPerimeter=0;edgeStyle=orthogonalEdgeStyle;rounded=0;" edge="1" parent="WIyWlLk6GJQsqaUBKTNV-1" source="GKu7pvznXo3YkOagFsmP-37" target="GKu7pvznXo3YkOagFsmP-12">
          <mxGeometry width="50" height="50" relative="1" as="geometry">
            <mxPoint x="320" y="380" as="sourcePoint" />
            <mxPoint x="350" y="350" as="targetPoint" />
            <Array as="points">
              <mxPoint x="200" y="420" />
              <mxPoint x="345" y="420" />
            </Array>
          </mxGeometry>
        </mxCell>
        <mxCell id="GKu7pvznXo3YkOagFsmP-73" value="&lt;div&gt;0..*&lt;/div&gt;" style="edgeLabel;html=1;align=center;verticalAlign=middle;resizable=0;points=[];" vertex="1" connectable="0" parent="GKu7pvznXo3YkOagFsmP-71">
          <mxGeometry x="0.8661" y="2" relative="1" as="geometry">
            <mxPoint x="-12.630000000000003" y="-13.709999999999997" as="offset" />
          </mxGeometry>
        </mxCell>
        <mxCell id="GKu7pvznXo3YkOagFsmP-80" value="" style="endArrow=none;html=1;exitX=0.212;exitY=0.011;exitDx=0;exitDy=0;exitPerimeter=0;entryX=0.25;entryY=1;entryDx=0;entryDy=0;edgeStyle=orthogonalEdgeStyle;rounded=0;" edge="1" parent="WIyWlLk6GJQsqaUBKTNV-1" source="GKu7pvznXo3YkOagFsmP-37" target="zkfFHV4jXpPFQw0GAbJ--0">
          <mxGeometry width="50" height="50" relative="1" as="geometry">
            <mxPoint x="320" y="450" as="sourcePoint" />
            <mxPoint x="370" y="400" as="targetPoint" />
            <Array as="points">
              <mxPoint x="154" y="400" />
              <mxPoint x="190" y="400" />
            </Array>
          </mxGeometry>
        </mxCell>
        <mxCell id="GKu7pvznXo3YkOagFsmP-81" value="1" style="edgeLabel;html=1;align=center;verticalAlign=middle;resizable=0;points=[];" vertex="1" connectable="0" parent="GKu7pvznXo3YkOagFsmP-80">
          <mxGeometry x="-0.833" y="1" relative="1" as="geometry">
            <mxPoint x="-5.95" y="3.6" as="offset" />
          </mxGeometry>
        </mxCell>
        <mxCell id="GKu7pvznXo3YkOagFsmP-82" value="&lt;div&gt;0..*&lt;/div&gt;" style="edgeLabel;html=1;align=center;verticalAlign=middle;resizable=0;points=[];" vertex="1" connectable="0" parent="GKu7pvznXo3YkOagFsmP-80">
          <mxGeometry x="0.938" relative="1" as="geometry">
            <mxPoint x="11.08" y="1.99" as="offset" />
          </mxGeometry>
        </mxCell>
        <mxCell id="GKu7pvznXo3YkOagFsmP-83" value="" style="endArrow=none;html=1;entryX=0;entryY=0.5;entryDx=0;entryDy=0;exitX=0.75;exitY=1;exitDx=0;exitDy=0;edgeStyle=orthogonalEdgeStyle;rounded=0;" edge="1" parent="WIyWlLk6GJQsqaUBKTNV-1" source="zkfFHV4jXpPFQw0GAbJ--0" target="GKu7pvznXo3YkOagFsmP-108">
          <mxGeometry width="50" height="50" relative="1" as="geometry">
            <mxPoint x="30" y="480" as="sourcePoint" />
            <mxPoint x="80" y="430" as="targetPoint" />
          </mxGeometry>
        </mxCell>
        <mxCell id="GKu7pvznXo3YkOagFsmP-84" value="&lt;div&gt;0..*&lt;/div&gt;" style="edgeLabel;html=1;align=center;verticalAlign=middle;resizable=0;points=[];" vertex="1" connectable="0" parent="GKu7pvznXo3YkOagFsmP-83">
          <mxGeometry x="0.9408" y="-1" relative="1" as="geometry">
            <mxPoint x="-2.860000000000001" y="-16" as="offset" />
          </mxGeometry>
        </mxCell>
        <mxCell id="GKu7pvznXo3YkOagFsmP-85" value="0..*" style="edgeLabel;html=1;align=center;verticalAlign=middle;resizable=0;points=[];" vertex="1" connectable="0" parent="GKu7pvznXo3YkOagFsmP-83">
          <mxGeometry x="-0.9405" y="-1" relative="1" as="geometry">
            <mxPoint x="-19.060000000000002" y="2.0299999999999994" as="offset" />
          </mxGeometry>
        </mxCell>
        <mxCell id="GKu7pvznXo3YkOagFsmP-100" value="tutor" style="swimlane;fontStyle=0;align=center;verticalAlign=top;childLayout=stackLayout;horizontal=1;startSize=26;horizontalStack=0;resizeParent=1;resizeLast=0;collapsible=1;marginBottom=0;rounded=0;shadow=0;strokeWidth=1;" vertex="1" parent="WIyWlLk6GJQsqaUBKTNV-1">
          <mxGeometry x="510" y="50" width="160" height="52" as="geometry">
            <mxRectangle x="550" y="140" width="160" height="26" as="alternateBounds" />
          </mxGeometry>
        </mxCell>
        <mxCell id="GKu7pvznXo3YkOagFsmP-101" value="- name: String" style="text;align=left;verticalAlign=top;spacingLeft=4;spacingRight=4;overflow=hidden;rotatable=0;points=[[0,0.5],[1,0.5]];portConstraint=eastwest;" vertex="1" parent="GKu7pvznXo3YkOagFsmP-100">
          <mxGeometry y="26" width="160" height="26" as="geometry" />
        </mxCell>
        <mxCell id="GKu7pvznXo3YkOagFsmP-102" style="edgeStyle=orthogonalEdgeStyle;rounded=0;orthogonalLoop=1;jettySize=auto;html=1;endArrow=open;endFill=0;entryX=0.25;entryY=1;entryDx=0;entryDy=0;" edge="1" parent="WIyWlLk6GJQsqaUBKTNV-1" source="GKu7pvznXo3YkOagFsmP-7" target="GKu7pvznXo3YkOagFsmP-100">
          <mxGeometry relative="1" as="geometry">
            <mxPoint x="550" y="210" as="targetPoint" />
          </mxGeometry>
        </mxCell>
        <mxCell id="GKu7pvznXo3YkOagFsmP-104" value="1" style="edgeLabel;html=1;align=center;verticalAlign=middle;resizable=0;points=[];" vertex="1" connectable="0" parent="GKu7pvznXo3YkOagFsmP-102">
          <mxGeometry x="-0.87" y="-2" relative="1" as="geometry">
            <mxPoint x="-1.43" y="-12" as="offset" />
          </mxGeometry>
        </mxCell>
        <mxCell id="GKu7pvznXo3YkOagFsmP-107" value="0..1" style="edgeLabel;html=1;align=center;verticalAlign=middle;resizable=0;points=[];" vertex="1" connectable="0" parent="GKu7pvznXo3YkOagFsmP-102">
          <mxGeometry x="0.8877" y="2" relative="1" as="geometry">
            <mxPoint x="-18" as="offset" />
          </mxGeometry>
        </mxCell>
        <mxCell id="GKu7pvznXo3YkOagFsmP-103" style="edgeStyle=orthogonalEdgeStyle;rounded=0;orthogonalLoop=1;jettySize=auto;html=1;endArrow=open;endFill=0;exitX=0.75;exitY=0;exitDx=0;exitDy=0;" edge="1" parent="WIyWlLk6GJQsqaUBKTNV-1" source="GKu7pvznXo3YkOagFsmP-13">
          <mxGeometry relative="1" as="geometry">
            <mxPoint x="610" y="102" as="targetPoint" />
            <mxPoint x="490" y="220" as="sourcePoint" />
          </mxGeometry>
        </mxCell>
        <mxCell id="GKu7pvznXo3YkOagFsmP-105" value="1" style="edgeLabel;html=1;align=center;verticalAlign=middle;resizable=0;points=[];" vertex="1" connectable="0" parent="GKu7pvznXo3YkOagFsmP-103">
          <mxGeometry x="-0.8076" relative="1" as="geometry">
            <mxPoint x="10" y="1.29" as="offset" />
          </mxGeometry>
        </mxCell>
        <mxCell id="GKu7pvznXo3YkOagFsmP-106" value="0..1" style="edgeLabel;html=1;align=center;verticalAlign=middle;resizable=0;points=[];" vertex="1" connectable="0" parent="GKu7pvznXo3YkOagFsmP-103">
          <mxGeometry x="0.8484" y="-2" relative="1" as="geometry">
            <mxPoint x="18" as="offset" />
          </mxGeometry>
        </mxCell>
        <mxCell id="GKu7pvznXo3YkOagFsmP-108" value="&lt;div&gt;«interface»&lt;/div&gt;Subscriber" style="html=1;fillColor=none;" vertex="1" parent="WIyWlLk6GJQsqaUBKTNV-1">
          <mxGeometry x="400" y="440" width="110" height="50" as="geometry" />
        </mxCell>
        <mxCell id="GKu7pvznXo3YkOagFsmP-120" value="" style="endArrow=none;html=1;entryX=0.25;entryY=0;entryDx=0;entryDy=0;rounded=0;edgeStyle=orthogonalEdgeStyle;exitX=0.507;exitY=0.984;exitDx=0;exitDy=0;exitPerimeter=0;" edge="1" parent="WIyWlLk6GJQsqaUBKTNV-1" source="GKu7pvznXo3YkOagFsmP-12" target="GKu7pvznXo3YkOagFsmP-42">
          <mxGeometry width="50" height="50" relative="1" as="geometry">
            <mxPoint x="401" y="355" as="sourcePoint" />
            <mxPoint x="629.94" y="530" as="targetPoint" />
            <Array as="points">
              <mxPoint x="401" y="420" />
              <mxPoint x="630" y="420" />
            </Array>
          </mxGeometry>
        </mxCell>
        <mxCell id="GKu7pvznXo3YkOagFsmP-121" value="1" style="edgeLabel;html=1;align=center;verticalAlign=middle;resizable=0;points=[];" vertex="1" connectable="0" parent="GKu7pvznXo3YkOagFsmP-120">
          <mxGeometry x="0.9052" y="2" relative="1" as="geometry">
            <mxPoint x="10.7" y="-3.38" as="offset" />
          </mxGeometry>
        </mxCell>
        <mxCell id="GKu7pvznXo3YkOagFsmP-122" value="&lt;div&gt;0..*&lt;/div&gt;" style="edgeLabel;html=1;align=center;verticalAlign=middle;resizable=0;points=[];" vertex="1" connectable="0" parent="GKu7pvznXo3YkOagFsmP-120">
          <mxGeometry x="-0.8875" y="1" relative="1" as="geometry">
            <mxPoint x="19.779999999999994" y="-5.859999999999999" as="offset" />
          </mxGeometry>
        </mxCell>
        <mxCell id="GKu7pvznXo3YkOagFsmP-123" value="" style="endArrow=none;html=1;edgeStyle=orthogonalEdgeStyle;rounded=0;exitX=0.5;exitY=0;exitDx=0;exitDy=0;entryX=0.485;entryY=1.005;entryDx=0;entryDy=0;entryPerimeter=0;" edge="1" parent="WIyWlLk6GJQsqaUBKTNV-1" source="GKu7pvznXo3YkOagFsmP-42" target="GKu7pvznXo3YkOagFsmP-16">
          <mxGeometry width="50" height="50" relative="1" as="geometry">
            <mxPoint x="670" y="490" as="sourcePoint" />
            <mxPoint x="570" y="390" as="targetPoint" />
            <Array as="points">
              <mxPoint x="670" y="380" />
              <mxPoint x="570" y="380" />
              <mxPoint x="570" y="353" />
            </Array>
          </mxGeometry>
        </mxCell>
        <mxCell id="GKu7pvznXo3YkOagFsmP-124" value="&lt;div&gt;1&lt;/div&gt;" style="edgeLabel;html=1;align=center;verticalAlign=middle;resizable=0;points=[];" vertex="1" connectable="0" parent="GKu7pvznXo3YkOagFsmP-123">
          <mxGeometry x="-0.859" relative="1" as="geometry">
            <mxPoint x="7.04" as="offset" />
          </mxGeometry>
        </mxCell>
        <mxCell id="GKu7pvznXo3YkOagFsmP-125" value="&lt;div&gt;0..*&lt;/div&gt;" style="edgeLabel;html=1;align=center;verticalAlign=middle;resizable=0;points=[];" vertex="1" connectable="0" parent="GKu7pvznXo3YkOagFsmP-123">
          <mxGeometry x="0.9051" y="1" relative="1" as="geometry">
            <mxPoint x="16.15" as="offset" />
          </mxGeometry>
        </mxCell>
        <mxCell id="GKu7pvznXo3YkOagFsmP-126" value="&lt;div&gt;0..*&lt;/div&gt;" style="edgeLabel;html=1;align=center;verticalAlign=middle;resizable=0;points=[];" vertex="1" connectable="0" parent="GKu7pvznXo3YkOagFsmP-123">
          <mxGeometry x="0.9051" y="1" relative="1" as="geometry">
            <mxPoint x="-19.01" y="3.9999999999999996" as="offset" />
          </mxGeometry>
        </mxCell>
        <mxCell id="GKu7pvznXo3YkOagFsmP-127" value="&lt;div&gt;0..*&lt;/div&gt;" style="edgeLabel;html=1;align=center;verticalAlign=middle;resizable=0;points=[];" vertex="1" connectable="0" parent="GKu7pvznXo3YkOagFsmP-123">
          <mxGeometry x="0.9051" y="1" relative="1" as="geometry">
            <mxPoint x="-63.85" y="10.03" as="offset" />
          </mxGeometry>
        </mxCell>
        <mxCell id="GKu7pvznXo3YkOagFsmP-128" value="" style="endArrow=none;html=1;edgeStyle=orthogonalEdgeStyle;rounded=0;exitX=0.812;exitY=-0.022;exitDx=0;exitDy=0;exitPerimeter=0;entryX=0.244;entryY=0.986;entryDx=0;entryDy=0;entryPerimeter=0;" edge="1" parent="WIyWlLk6GJQsqaUBKTNV-1" source="GKu7pvznXo3YkOagFsmP-37" target="GKu7pvznXo3YkOagFsmP-16">
          <mxGeometry width="50" height="50" relative="1" as="geometry">
            <mxPoint x="230" y="490" as="sourcePoint" />
            <mxPoint x="529" y="355" as="targetPoint" />
            <Array as="points">
              <mxPoint x="250" y="500" />
              <mxPoint x="529" y="500" />
            </Array>
          </mxGeometry>
        </mxCell>
        <mxCell id="GKu7pvznXo3YkOagFsmP-129" value="&lt;div&gt;0..*&lt;/div&gt;" style="edgeLabel;html=1;align=center;verticalAlign=middle;resizable=0;points=[];" vertex="1" connectable="0" parent="GKu7pvznXo3YkOagFsmP-128">
          <mxGeometry x="-0.9295" y="1" relative="1" as="geometry">
            <mxPoint x="0.6600000000000001" y="-13.34" as="offset" />
          </mxGeometry>
        </mxCell>
        <mxCell id="GKu7pvznXo3YkOagFsmP-130" value="&lt;div&gt;0..*&lt;/div&gt;" style="edgeLabel;html=1;align=center;verticalAlign=middle;resizable=0;points=[];" vertex="1" connectable="0" parent="GKu7pvznXo3YkOagFsmP-128">
          <mxGeometry x="-0.9295" y="1" relative="1" as="geometry">
            <mxPoint x="-59.34" y="-3.34" as="offset" />
          </mxGeometry>
        </mxCell>
      </root>
    </mxGraphModel>
  </diagram>
</mxfile>
